<mxfile host="app.diagrams.net" modified="2023-05-24T08:38:20.288Z" agent="5.0 (Macintosh; Intel Mac OS X 10_15_7) AppleWebKit/537.36 (KHTML, like Gecko) Chrome/113.0.0.0 Safari/537.36" etag="tqVvMPw8K8g_nx5S998i" version="20.7.4" type="github">
  <diagram id="3rOCGKYBG2pdvaZSM_1T" name="Page-1">
    <mxGraphModel dx="2387" dy="1014" grid="1" gridSize="10" guides="1" tooltips="1" connect="1" arrows="1" fold="1" page="1" pageScale="1" pageWidth="827" pageHeight="1169" math="0" shadow="0">
      <root>
        <mxCell id="0" />
        <mxCell id="1" parent="0" />
        <mxCell id="50LBui8sS1tnswhIV1ka-1" value="REGION2" style="rounded=0;whiteSpace=wrap;html=1;" parent="1" vertex="1">
          <mxGeometry x="250" y="1799" width="260" height="381" as="geometry" />
        </mxCell>
        <mxCell id="50LBui8sS1tnswhIV1ka-2" value="REGION1" style="rounded=1;whiteSpace=wrap;html=1;" parent="1" vertex="1">
          <mxGeometry x="-120" y="630" width="470" height="390" as="geometry" />
        </mxCell>
        <mxCell id="50LBui8sS1tnswhIV1ka-3" value="" style="rounded=0;whiteSpace=wrap;html=1;" parent="1" vertex="1">
          <mxGeometry x="464" y="670" width="210" height="280" as="geometry" />
        </mxCell>
        <mxCell id="50LBui8sS1tnswhIV1ka-4" value="UI （REGION2）" style="rounded=1;whiteSpace=wrap;html=1;" parent="1" vertex="1">
          <mxGeometry x="757" y="780" width="120" height="60" as="geometry" />
        </mxCell>
        <mxCell id="50LBui8sS1tnswhIV1ka-5" value="Proxy1" style="rounded=1;whiteSpace=wrap;html=1;" parent="1" vertex="1">
          <mxGeometry x="509" y="1155" width="120" height="60" as="geometry" />
        </mxCell>
        <mxCell id="50LBui8sS1tnswhIV1ka-6" value="DB" style="rounded=1;whiteSpace=wrap;html=1;" parent="1" vertex="1">
          <mxGeometry x="504" y="700" width="120" height="60" as="geometry" />
        </mxCell>
        <mxCell id="50LBui8sS1tnswhIV1ka-7" value="ZK" style="rounded=1;whiteSpace=wrap;html=1;" parent="1" vertex="1">
          <mxGeometry x="504" y="870" width="120" height="60" as="geometry" />
        </mxCell>
        <mxCell id="50LBui8sS1tnswhIV1ka-8" value="Proxy2" style="rounded=1;whiteSpace=wrap;html=1;" parent="1" vertex="1">
          <mxGeometry x="180" y="780" width="120" height="60" as="geometry" />
        </mxCell>
        <mxCell id="50LBui8sS1tnswhIV1ka-9" value="" style="endArrow=classic;startArrow=classic;html=1;entryX=0.5;entryY=1;entryDx=0;entryDy=0;exitX=0.5;exitY=0;exitDx=0;exitDy=0;" parent="1" source="50LBui8sS1tnswhIV1ka-5" target="50LBui8sS1tnswhIV1ka-3" edge="1">
          <mxGeometry width="50" height="50" relative="1" as="geometry">
            <mxPoint x="440" y="1120" as="sourcePoint" />
            <mxPoint x="490" y="1070" as="targetPoint" />
          </mxGeometry>
        </mxCell>
        <mxCell id="50LBui8sS1tnswhIV1ka-10" value="" style="endArrow=classic;startArrow=classic;html=1;entryX=0;entryY=0.5;entryDx=0;entryDy=0;exitX=1;exitY=0.5;exitDx=0;exitDy=0;" parent="1" source="50LBui8sS1tnswhIV1ka-8" target="50LBui8sS1tnswhIV1ka-3" edge="1">
          <mxGeometry width="50" height="50" relative="1" as="geometry">
            <mxPoint x="440" y="1120" as="sourcePoint" />
            <mxPoint x="490" y="1070" as="targetPoint" />
          </mxGeometry>
        </mxCell>
        <mxCell id="50LBui8sS1tnswhIV1ka-11" value="A1" style="rounded=1;whiteSpace=wrap;html=1;" parent="1" vertex="1">
          <mxGeometry x="350" y="1280" width="120" height="60" as="geometry" />
        </mxCell>
        <mxCell id="50LBui8sS1tnswhIV1ka-12" value="A2" style="rounded=1;whiteSpace=wrap;html=1;" parent="1" vertex="1">
          <mxGeometry x="560" y="1280" width="120" height="60" as="geometry" />
        </mxCell>
        <mxCell id="50LBui8sS1tnswhIV1ka-13" value="A3" style="rounded=1;whiteSpace=wrap;html=1;" parent="1" vertex="1">
          <mxGeometry x="-40" y="720" width="120" height="60" as="geometry" />
        </mxCell>
        <mxCell id="50LBui8sS1tnswhIV1ka-14" value="A4" style="rounded=1;whiteSpace=wrap;html=1;" parent="1" vertex="1">
          <mxGeometry x="-30" y="890" width="120" height="60" as="geometry" />
        </mxCell>
        <mxCell id="50LBui8sS1tnswhIV1ka-15" value="" style="endArrow=classic;html=1;exitX=1;exitY=0.5;exitDx=0;exitDy=0;entryX=0;entryY=0.5;entryDx=0;entryDy=0;" parent="1" source="50LBui8sS1tnswhIV1ka-13" target="50LBui8sS1tnswhIV1ka-8" edge="1">
          <mxGeometry width="50" height="50" relative="1" as="geometry">
            <mxPoint x="440" y="1120" as="sourcePoint" />
            <mxPoint x="490" y="1070" as="targetPoint" />
          </mxGeometry>
        </mxCell>
        <mxCell id="50LBui8sS1tnswhIV1ka-16" value="" style="endArrow=classic;html=1;exitX=1;exitY=0.5;exitDx=0;exitDy=0;entryX=0;entryY=0.5;entryDx=0;entryDy=0;" parent="1" source="50LBui8sS1tnswhIV1ka-14" target="50LBui8sS1tnswhIV1ka-8" edge="1">
          <mxGeometry width="50" height="50" relative="1" as="geometry">
            <mxPoint x="440" y="1120" as="sourcePoint" />
            <mxPoint x="490" y="1070" as="targetPoint" />
          </mxGeometry>
        </mxCell>
        <mxCell id="50LBui8sS1tnswhIV1ka-17" value="" style="endArrow=classic;html=1;exitX=0.5;exitY=0;exitDx=0;exitDy=0;entryX=0.5;entryY=1;entryDx=0;entryDy=0;" parent="1" source="50LBui8sS1tnswhIV1ka-11" target="50LBui8sS1tnswhIV1ka-5" edge="1">
          <mxGeometry width="50" height="50" relative="1" as="geometry">
            <mxPoint x="440" y="1120" as="sourcePoint" />
            <mxPoint x="490" y="1070" as="targetPoint" />
          </mxGeometry>
        </mxCell>
        <mxCell id="50LBui8sS1tnswhIV1ka-18" value="" style="endArrow=classic;html=1;exitX=0.5;exitY=0;exitDx=0;exitDy=0;entryX=0.5;entryY=1;entryDx=0;entryDy=0;" parent="1" source="50LBui8sS1tnswhIV1ka-12" target="50LBui8sS1tnswhIV1ka-5" edge="1">
          <mxGeometry width="50" height="50" relative="1" as="geometry">
            <mxPoint x="440" y="1120" as="sourcePoint" />
            <mxPoint x="490" y="1070" as="targetPoint" />
          </mxGeometry>
        </mxCell>
        <mxCell id="50LBui8sS1tnswhIV1ka-19" value="" style="endArrow=classic;html=1;entryX=0;entryY=0.5;entryDx=0;entryDy=0;exitX=1;exitY=0.5;exitDx=0;exitDy=0;" parent="1" source="50LBui8sS1tnswhIV1ka-3" target="50LBui8sS1tnswhIV1ka-4" edge="1">
          <mxGeometry width="50" height="50" relative="1" as="geometry">
            <mxPoint x="440" y="1120" as="sourcePoint" />
            <mxPoint x="490" y="1070" as="targetPoint" />
          </mxGeometry>
        </mxCell>
        <mxCell id="50LBui8sS1tnswhIV1ka-20" style="edgeStyle=orthogonalEdgeStyle;rounded=0;orthogonalLoop=1;jettySize=auto;html=1;exitX=0.5;exitY=0.5;exitDx=0;exitDy=0;exitPerimeter=0;" parent="1" source="50LBui8sS1tnswhIV1ka-22" target="50LBui8sS1tnswhIV1ka-8" edge="1">
          <mxGeometry relative="1" as="geometry" />
        </mxCell>
        <mxCell id="50LBui8sS1tnswhIV1ka-21" value="attah" style="edgeLabel;html=1;align=center;verticalAlign=middle;resizable=0;points=[];" parent="50LBui8sS1tnswhIV1ka-20" vertex="1" connectable="0">
          <mxGeometry x="-0.4603" y="23" relative="1" as="geometry">
            <mxPoint x="-63" y="10" as="offset" />
          </mxGeometry>
        </mxCell>
        <mxCell id="50LBui8sS1tnswhIV1ka-22" value="Actor" style="shape=umlActor;verticalLabelPosition=bottom;labelBackgroundColor=#ffffff;verticalAlign=top;html=1;outlineConnect=0;" parent="1" vertex="1">
          <mxGeometry x="310" y="520" width="30" height="60" as="geometry" />
        </mxCell>
        <mxCell id="50LBui8sS1tnswhIV1ka-23" value="" style="endArrow=classic;startArrow=classic;html=1;exitX=0.5;exitY=0.5;exitDx=0;exitDy=0;exitPerimeter=0;entryX=0.5;entryY=0;entryDx=0;entryDy=0;" parent="1" source="50LBui8sS1tnswhIV1ka-22" target="50LBui8sS1tnswhIV1ka-4" edge="1">
          <mxGeometry width="50" height="50" relative="1" as="geometry">
            <mxPoint x="325" y="550" as="sourcePoint" />
            <mxPoint x="817" y="780" as="targetPoint" />
            <Array as="points">
              <mxPoint x="817" y="550" />
            </Array>
          </mxGeometry>
        </mxCell>
        <mxCell id="50LBui8sS1tnswhIV1ka-24" value="monitor" style="edgeLabel;html=1;align=center;verticalAlign=middle;resizable=0;points=[];" parent="50LBui8sS1tnswhIV1ka-23" vertex="1" connectable="0">
          <mxGeometry x="0.1551" relative="1" as="geometry">
            <mxPoint x="-22" y="-10" as="offset" />
          </mxGeometry>
        </mxCell>
        <mxCell id="50LBui8sS1tnswhIV1ka-25" value="Chrome" style="shape=parallelogram;perimeter=parallelogramPerimeter;whiteSpace=wrap;html=1;" parent="1" vertex="1">
          <mxGeometry x="380" y="520" width="120" height="60" as="geometry" />
        </mxCell>
        <mxCell id="50LBui8sS1tnswhIV1ka-26" value="REGION1" style="rounded=0;whiteSpace=wrap;html=1;" parent="1" vertex="1">
          <mxGeometry x="630" y="1850" width="660" height="370" as="geometry" />
        </mxCell>
        <mxCell id="50LBui8sS1tnswhIV1ka-27" value="UI" style="rounded=1;whiteSpace=wrap;html=1;" parent="1" vertex="1">
          <mxGeometry x="1020" y="2005" width="120" height="60" as="geometry" />
        </mxCell>
        <mxCell id="50LBui8sS1tnswhIV1ka-28" value="Proxy1" style="rounded=1;whiteSpace=wrap;html=1;" parent="1" vertex="1">
          <mxGeometry x="870" y="2130" width="120" height="60" as="geometry" />
        </mxCell>
        <mxCell id="50LBui8sS1tnswhIV1ka-29" value="DB" style="rounded=1;whiteSpace=wrap;html=1;" parent="1" vertex="1">
          <mxGeometry x="910" y="1870" width="120" height="60" as="geometry" />
        </mxCell>
        <mxCell id="50LBui8sS1tnswhIV1ka-30" value="ZK" style="rounded=1;whiteSpace=wrap;html=1;" parent="1" vertex="1">
          <mxGeometry x="730" y="1870" width="120" height="60" as="geometry" />
        </mxCell>
        <mxCell id="50LBui8sS1tnswhIV1ka-31" value="Proxy2" style="rounded=1;whiteSpace=wrap;html=1;" parent="1" vertex="1">
          <mxGeometry x="690" y="1990" width="120" height="60" as="geometry" />
        </mxCell>
        <mxCell id="50LBui8sS1tnswhIV1ka-32" value="A1" style="rounded=1;whiteSpace=wrap;html=1;" parent="1" vertex="1">
          <mxGeometry x="720" y="2460" width="120" height="60" as="geometry" />
        </mxCell>
        <mxCell id="50LBui8sS1tnswhIV1ka-33" value="A2" style="rounded=1;whiteSpace=wrap;html=1;" parent="1" vertex="1">
          <mxGeometry x="930" y="2460" width="120" height="60" as="geometry" />
        </mxCell>
        <mxCell id="50LBui8sS1tnswhIV1ka-34" value="A3" style="rounded=1;whiteSpace=wrap;html=1;" parent="1" vertex="1">
          <mxGeometry x="330" y="1900" width="120" height="60" as="geometry" />
        </mxCell>
        <mxCell id="50LBui8sS1tnswhIV1ka-35" value="A4" style="rounded=1;whiteSpace=wrap;html=1;" parent="1" vertex="1">
          <mxGeometry x="340" y="2070" width="120" height="60" as="geometry" />
        </mxCell>
        <mxCell id="50LBui8sS1tnswhIV1ka-36" value="" style="endArrow=classic;html=1;exitX=1;exitY=0.5;exitDx=0;exitDy=0;entryX=0;entryY=0.5;entryDx=0;entryDy=0;" parent="1" source="50LBui8sS1tnswhIV1ka-34" target="50LBui8sS1tnswhIV1ka-31" edge="1">
          <mxGeometry width="50" height="50" relative="1" as="geometry">
            <mxPoint x="810" y="2300" as="sourcePoint" />
            <mxPoint x="860" y="2250" as="targetPoint" />
          </mxGeometry>
        </mxCell>
        <mxCell id="50LBui8sS1tnswhIV1ka-37" value="" style="endArrow=classic;html=1;exitX=1;exitY=0.5;exitDx=0;exitDy=0;entryX=0;entryY=0.5;entryDx=0;entryDy=0;" parent="1" source="50LBui8sS1tnswhIV1ka-35" target="50LBui8sS1tnswhIV1ka-31" edge="1">
          <mxGeometry width="50" height="50" relative="1" as="geometry">
            <mxPoint x="810" y="2300" as="sourcePoint" />
            <mxPoint x="860" y="2250" as="targetPoint" />
          </mxGeometry>
        </mxCell>
        <mxCell id="50LBui8sS1tnswhIV1ka-38" value="" style="endArrow=classic;html=1;exitX=0.5;exitY=0;exitDx=0;exitDy=0;entryX=0.5;entryY=1;entryDx=0;entryDy=0;" parent="1" source="50LBui8sS1tnswhIV1ka-32" target="50LBui8sS1tnswhIV1ka-28" edge="1">
          <mxGeometry width="50" height="50" relative="1" as="geometry">
            <mxPoint x="810" y="2300" as="sourcePoint" />
            <mxPoint x="860" y="2250" as="targetPoint" />
          </mxGeometry>
        </mxCell>
        <mxCell id="50LBui8sS1tnswhIV1ka-39" value="" style="endArrow=classic;html=1;exitX=0.5;exitY=0;exitDx=0;exitDy=0;entryX=0.5;entryY=1;entryDx=0;entryDy=0;" parent="1" source="50LBui8sS1tnswhIV1ka-33" target="50LBui8sS1tnswhIV1ka-28" edge="1">
          <mxGeometry width="50" height="50" relative="1" as="geometry">
            <mxPoint x="810" y="2300" as="sourcePoint" />
            <mxPoint x="860" y="2250" as="targetPoint" />
          </mxGeometry>
        </mxCell>
        <mxCell id="50LBui8sS1tnswhIV1ka-40" style="edgeStyle=orthogonalEdgeStyle;rounded=0;orthogonalLoop=1;jettySize=auto;html=1;exitX=0.5;exitY=0.5;exitDx=0;exitDy=0;exitPerimeter=0;entryX=0;entryY=0;entryDx=0;entryDy=0;" parent="1" source="50LBui8sS1tnswhIV1ka-41" target="50LBui8sS1tnswhIV1ka-31" edge="1">
          <mxGeometry relative="1" as="geometry" />
        </mxCell>
        <mxCell id="50LBui8sS1tnswhIV1ka-41" value="Actor" style="shape=umlActor;verticalLabelPosition=bottom;labelBackgroundColor=#ffffff;verticalAlign=top;html=1;outlineConnect=0;" parent="1" vertex="1">
          <mxGeometry x="680" y="1700" width="30" height="60" as="geometry" />
        </mxCell>
        <mxCell id="50LBui8sS1tnswhIV1ka-42" value="" style="endArrow=classic;startArrow=classic;html=1;exitX=0.5;exitY=0.5;exitDx=0;exitDy=0;exitPerimeter=0;entryX=0.5;entryY=0;entryDx=0;entryDy=0;" parent="1" source="50LBui8sS1tnswhIV1ka-41" target="50LBui8sS1tnswhIV1ka-27" edge="1">
          <mxGeometry width="50" height="50" relative="1" as="geometry">
            <mxPoint x="695" y="1730" as="sourcePoint" />
            <mxPoint x="1187" y="1960" as="targetPoint" />
            <Array as="points">
              <mxPoint x="1070" y="1730" />
            </Array>
          </mxGeometry>
        </mxCell>
        <mxCell id="50LBui8sS1tnswhIV1ka-43" value="monitor" style="edgeLabel;html=1;align=center;verticalAlign=middle;resizable=0;points=[];" parent="50LBui8sS1tnswhIV1ka-42" vertex="1" connectable="0">
          <mxGeometry x="0.1551" relative="1" as="geometry">
            <mxPoint x="-22" y="-10" as="offset" />
          </mxGeometry>
        </mxCell>
        <mxCell id="50LBui8sS1tnswhIV1ka-44" value="Chrome" style="shape=parallelogram;perimeter=parallelogramPerimeter;whiteSpace=wrap;html=1;" parent="1" vertex="1">
          <mxGeometry x="750" y="1700" width="120" height="60" as="geometry" />
        </mxCell>
        <mxCell id="50LBui8sS1tnswhIV1ka-45" value="attch --&amp;gt;&amp;nbsp; r1---&amp;gt; r2--&amp;gt;r1---user" style="rounded=0;whiteSpace=wrap;html=1;" parent="1" vertex="1">
          <mxGeometry x="250" y="2300" width="120" height="60" as="geometry" />
        </mxCell>
        <mxCell id="50LBui8sS1tnswhIV1ka-46" value="user----&amp;gt;region1" style="rounded=0;whiteSpace=wrap;html=1;" parent="1" vertex="1">
          <mxGeometry x="-60" y="520" width="120" height="60" as="geometry" />
        </mxCell>
        <mxCell id="50LBui8sS1tnswhIV1ka-47" value="us -east-1、east-2,west-1,新加坡1" style="rounded=0;whiteSpace=wrap;html=1;" parent="1" vertex="1">
          <mxGeometry x="280" y="210" width="300" height="60" as="geometry" />
        </mxCell>
        <mxCell id="GGoEMhuIVAGTVx5QSTLp-7" value="" style="edgeStyle=orthogonalEdgeStyle;rounded=0;orthogonalLoop=1;jettySize=auto;html=1;fontSize=20;" edge="1" parent="1" source="GGoEMhuIVAGTVx5QSTLp-1" target="GGoEMhuIVAGTVx5QSTLp-2">
          <mxGeometry relative="1" as="geometry" />
        </mxCell>
        <mxCell id="GGoEMhuIVAGTVx5QSTLp-1" value="&lt;font style=&quot;font-size: 20px;&quot;&gt;start&lt;/font&gt;" style="rounded=0;whiteSpace=wrap;html=1;" vertex="1" parent="1">
          <mxGeometry x="354" y="2950" width="186" height="50" as="geometry" />
        </mxCell>
        <mxCell id="GGoEMhuIVAGTVx5QSTLp-8" value="" style="edgeStyle=orthogonalEdgeStyle;rounded=0;orthogonalLoop=1;jettySize=auto;html=1;fontSize=20;" edge="1" parent="1" source="GGoEMhuIVAGTVx5QSTLp-2" target="GGoEMhuIVAGTVx5QSTLp-4">
          <mxGeometry relative="1" as="geometry" />
        </mxCell>
        <mxCell id="GGoEMhuIVAGTVx5QSTLp-2" value="&lt;font style=&quot;font-size: 20px;&quot;&gt;StsConfigMediatorHolder&lt;/font&gt;" style="rounded=0;whiteSpace=wrap;html=1;" vertex="1" parent="1">
          <mxGeometry x="312" y="3070" width="270" height="50" as="geometry" />
        </mxCell>
        <mxCell id="GGoEMhuIVAGTVx5QSTLp-5" style="edgeStyle=orthogonalEdgeStyle;rounded=0;orthogonalLoop=1;jettySize=auto;html=1;entryX=1;entryY=0.5;entryDx=0;entryDy=0;fontSize=20;" edge="1" parent="1" source="GGoEMhuIVAGTVx5QSTLp-3" target="GGoEMhuIVAGTVx5QSTLp-2">
          <mxGeometry relative="1" as="geometry" />
        </mxCell>
        <mxCell id="GGoEMhuIVAGTVx5QSTLp-6" value="get switch from nacos" style="edgeLabel;html=1;align=center;verticalAlign=middle;resizable=0;points=[];fontSize=20;" vertex="1" connectable="0" parent="GGoEMhuIVAGTVx5QSTLp-5">
          <mxGeometry x="-0.0167" relative="1" as="geometry">
            <mxPoint as="offset" />
          </mxGeometry>
        </mxCell>
        <mxCell id="GGoEMhuIVAGTVx5QSTLp-3" value="&lt;font style=&quot;font-size: 20px;&quot;&gt;nacos&lt;/font&gt;" style="rounded=0;whiteSpace=wrap;html=1;" vertex="1" parent="1">
          <mxGeometry x="780" y="2990" width="203" height="50" as="geometry" />
        </mxCell>
        <mxCell id="GGoEMhuIVAGTVx5QSTLp-15" value="" style="edgeStyle=orthogonalEdgeStyle;rounded=0;orthogonalLoop=1;jettySize=auto;html=1;fontSize=20;" edge="1" parent="1" source="GGoEMhuIVAGTVx5QSTLp-4" target="GGoEMhuIVAGTVx5QSTLp-14">
          <mxGeometry relative="1" as="geometry" />
        </mxCell>
        <mxCell id="GGoEMhuIVAGTVx5QSTLp-4" value="&lt;font style=&quot;font-size: 20px;&quot;&gt;access dynamodb&lt;/font&gt;" style="rounded=0;whiteSpace=wrap;html=1;" vertex="1" parent="1">
          <mxGeometry x="354" y="3170" width="186" height="50" as="geometry" />
        </mxCell>
        <mxCell id="GGoEMhuIVAGTVx5QSTLp-11" value="" style="edgeStyle=orthogonalEdgeStyle;rounded=0;orthogonalLoop=1;jettySize=auto;html=1;fontSize=20;" edge="1" parent="1" source="GGoEMhuIVAGTVx5QSTLp-10" target="GGoEMhuIVAGTVx5QSTLp-3">
          <mxGeometry relative="1" as="geometry" />
        </mxCell>
        <mxCell id="GGoEMhuIVAGTVx5QSTLp-12" style="edgeStyle=orthogonalEdgeStyle;rounded=0;orthogonalLoop=1;jettySize=auto;html=1;entryX=1;entryY=0.5;entryDx=0;entryDy=0;fontSize=20;" edge="1" parent="1" source="GGoEMhuIVAGTVx5QSTLp-10" target="GGoEMhuIVAGTVx5QSTLp-2">
          <mxGeometry relative="1" as="geometry" />
        </mxCell>
        <mxCell id="GGoEMhuIVAGTVx5QSTLp-13" value="dynamic switch" style="edgeLabel;html=1;align=center;verticalAlign=middle;resizable=0;points=[];fontSize=20;" vertex="1" connectable="0" parent="GGoEMhuIVAGTVx5QSTLp-12">
          <mxGeometry x="0.0345" y="5" relative="1" as="geometry">
            <mxPoint as="offset" />
          </mxGeometry>
        </mxCell>
        <mxCell id="GGoEMhuIVAGTVx5QSTLp-10" value="&lt;font style=&quot;font-size: 20px;&quot;&gt;nacos listener&lt;/font&gt;" style="rounded=0;whiteSpace=wrap;html=1;" vertex="1" parent="1">
          <mxGeometry x="780" y="3140" width="203" height="50" as="geometry" />
        </mxCell>
        <mxCell id="GGoEMhuIVAGTVx5QSTLp-20" style="edgeStyle=orthogonalEdgeStyle;rounded=0;orthogonalLoop=1;jettySize=auto;html=1;fontSize=20;" edge="1" parent="1" source="GGoEMhuIVAGTVx5QSTLp-14" target="GGoEMhuIVAGTVx5QSTLp-18">
          <mxGeometry x="0.7576" y="-41" relative="1" as="geometry">
            <Array as="points">
              <mxPoint x="287" y="3325" />
            </Array>
            <mxPoint x="34" y="-40" as="offset" />
          </mxGeometry>
        </mxCell>
        <mxCell id="GGoEMhuIVAGTVx5QSTLp-23" value="on" style="edgeLabel;html=1;align=center;verticalAlign=middle;resizable=0;points=[];fontSize=20;" vertex="1" connectable="0" parent="GGoEMhuIVAGTVx5QSTLp-20">
          <mxGeometry x="0.1939" y="-1" relative="1" as="geometry">
            <mxPoint as="offset" />
          </mxGeometry>
        </mxCell>
        <mxCell id="GGoEMhuIVAGTVx5QSTLp-22" style="edgeStyle=orthogonalEdgeStyle;rounded=0;orthogonalLoop=1;jettySize=auto;html=1;entryX=0.5;entryY=0;entryDx=0;entryDy=0;fontSize=20;" edge="1" parent="1" source="GGoEMhuIVAGTVx5QSTLp-14" target="GGoEMhuIVAGTVx5QSTLp-21">
          <mxGeometry relative="1" as="geometry">
            <Array as="points">
              <mxPoint x="630" y="3325" />
              <mxPoint x="630" y="3430" />
            </Array>
          </mxGeometry>
        </mxCell>
        <mxCell id="GGoEMhuIVAGTVx5QSTLp-24" value="off" style="edgeLabel;html=1;align=center;verticalAlign=middle;resizable=0;points=[];fontSize=20;" vertex="1" connectable="0" parent="GGoEMhuIVAGTVx5QSTLp-22">
          <mxGeometry x="0.2267" y="3" relative="1" as="geometry">
            <mxPoint x="-3" y="33" as="offset" />
          </mxGeometry>
        </mxCell>
        <mxCell id="GGoEMhuIVAGTVx5QSTLp-14" value="switch" style="rhombus;whiteSpace=wrap;html=1;fontSize=20;" vertex="1" parent="1">
          <mxGeometry x="347" y="3260" width="200" height="130" as="geometry" />
        </mxCell>
        <mxCell id="GGoEMhuIVAGTVx5QSTLp-26" style="edgeStyle=orthogonalEdgeStyle;rounded=0;orthogonalLoop=1;jettySize=auto;html=1;fontSize=20;" edge="1" parent="1" source="GGoEMhuIVAGTVx5QSTLp-18" target="GGoEMhuIVAGTVx5QSTLp-25">
          <mxGeometry relative="1" as="geometry" />
        </mxCell>
        <mxCell id="GGoEMhuIVAGTVx5QSTLp-18" value="BasicAWSCredentials" style="rounded=0;whiteSpace=wrap;html=1;fontSize=20;" vertex="1" parent="1">
          <mxGeometry x="150" y="3430" width="273" height="60" as="geometry" />
        </mxCell>
        <mxCell id="GGoEMhuIVAGTVx5QSTLp-19" value="" style="rounded=0;whiteSpace=wrap;html=1;fontSize=20;" vertex="1" parent="1">
          <mxGeometry x="-240" y="4040" width="120" height="60" as="geometry" />
        </mxCell>
        <mxCell id="GGoEMhuIVAGTVx5QSTLp-27" style="edgeStyle=orthogonalEdgeStyle;rounded=0;orthogonalLoop=1;jettySize=auto;html=1;entryX=0.5;entryY=0;entryDx=0;entryDy=0;fontSize=20;" edge="1" parent="1" source="GGoEMhuIVAGTVx5QSTLp-21" target="GGoEMhuIVAGTVx5QSTLp-25">
          <mxGeometry relative="1" as="geometry">
            <Array as="points">
              <mxPoint x="630" y="3530" />
              <mxPoint x="447" y="3530" />
            </Array>
          </mxGeometry>
        </mxCell>
        <mxCell id="GGoEMhuIVAGTVx5QSTLp-21" value="BasicSessionCredentials" style="rounded=0;whiteSpace=wrap;html=1;fontSize=20;" vertex="1" parent="1">
          <mxGeometry x="480" y="3430" width="256" height="60" as="geometry" />
        </mxCell>
        <mxCell id="GGoEMhuIVAGTVx5QSTLp-25" value="end" style="rounded=1;whiteSpace=wrap;html=1;fontSize=20;" vertex="1" parent="1">
          <mxGeometry x="387" y="3570" width="120" height="60" as="geometry" />
        </mxCell>
      </root>
    </mxGraphModel>
  </diagram>
</mxfile>
